<svg xmlns="http://www.w3.org/2000/svg" xmlns:xlink="http://www.w3.org/1999/xlink" width="0" height="0" style="position:absolute">

<symbol id="bmac" viewBox="0 0 884 1279" fill="none">
  <path d="m791.11 297.52-0.878-0.516-2.03-0.619c0.817 0.689 1.839 1.089 2.908 1.135z" fill="currentColor"/>
  <path d="m803.9 388.89-0.98 0.275 0.98-0.275z" fill="currentColor"/>
  <path d="m791.48 297.38c-0.125-0.016-0.247-0.045-0.366-0.087-7e-3 0.081-7e-3 0.163 0 0.244 0.134-0.018 0.261-0.072 0.366-0.157z" fill="currentColor"/>
  <path d="m791.11 297.53h0.131v-0.082l-0.131 0.082z" fill="currentColor"/>
  <path d="m793.67 299.52-1.446-1.377-0.98-0.533c0.527 0.93 1.398 1.616 2.426 1.91z" fill="currentColor"/>
  <path d="m430.02 1186.2c-1.155 0.5-2.167 1.28-2.943 2.27l0.912-0.58c0.62-0.57 1.497-1.24 2.031-1.69z" fill="currentColor"/>
  <path d="m641.19 1144.6c0-1.3-0.636-1.06-0.482 3.58 0-0.37 0.155-0.75 0.224-1.11 0.086-0.83 0.155-1.64 0.258-2.47z" fill="currentColor"/>
  <path d="m619.28 1186.2c-1.155 0.5-2.166 1.28-2.942 2.27l0.912-0.58c0.619-0.57 1.497-1.24 2.03-1.69z" fill="currentColor"/>
  <path d="m281.3 1196.1c-0.877-0.76-1.95-1.26-3.097-1.45 0.929 0.45 1.858 0.9 2.477 1.24l0.62 0.21z" fill="currentColor"/>
  <path d="m247.84 1164c-0.137-1.35-0.553-2.66-1.222-3.85 0.474 1.23 0.87 2.5 1.187 3.78l0.035 0.07z" fill="currentColor"/>
  <path class="y-path" d="m472.62 590.84c-45.941 19.667-98.077 41.966-165.65 41.966-28.266-0.056-56.396-3.934-83.623-11.528l46.733 479.81c1.654 20.05 10.79 38.75 25.593 52.38s34.191 21.19 54.313 21.19c0 0 66.262 3.44 88.373 3.44 23.796 0 95.151-3.44 95.151-3.44 20.12 0 39.503-7.57 54.303-21.2s23.933-32.32 25.587-52.37l50.053-530.2c-22.368-7.639-44.943-12.715-70.391-12.715-44.014-0.017-79.477 15.142-120.44 32.675z" fill="currentColor"/>
  <path d="m78.688 386.13 0.7914 0.74 0.5163 0.31c-0.3975-0.395-0.8359-0.747-1.3077-1.05z" fill="currentColor"/>
  <path d="m879.57 341.85-7.037-35.497c-6.315-31.849-20.648-61.943-53.34-73.454-10.479-3.683-22.369-5.265-30.404-12.888-8.035-7.622-10.41-19.46-12.268-30.438-3.442-20.149-6.676-40.315-10.204-60.429-3.045-17.293-5.454-36.719-13.386-52.583-10.324-21.302-31.746-33.759-53.048-42.001-10.915-4.0746-22.054-7.5215-33.363-10.324-53.22-14.04-109.18-19.202-163.93-22.145-65.716-3.6262-131.61-2.5337-197.17 3.2692-48.797 4.4393-100.19 9.8077-146.56 26.687-16.948 6.1771-34.413 13.593-47.3 26.687-15.813 16.088-20.975 40.968-9.43 61.031 8.208 14.247 22.111 24.313 36.857 30.972 19.207 8.58 39.266 15.109 59.844 19.478 57.297 12.664 116.64 17.636 175.18 19.753 64.88 2.618 129.86 0.496 194.43-6.35 15.968-1.755 31.907-3.86 47.817-6.314 18.738-2.874 30.765-27.376 25.242-44.445-6.608-20.406-24.365-28.321-44.444-25.241-2.96 0.464-5.902 0.894-8.862 1.324l-2.133 0.31c-6.803 0.861-13.605 1.663-20.407 2.409-14.052 1.514-28.138 2.753-42.259 3.717-31.626 2.202-63.337 3.217-95.031 3.269-31.144 0-62.305-0.878-93.38-2.925-14.178-0.929-28.322-2.111-42.431-3.545-6.418-0.671-12.819-1.376-19.219-2.168l-6.092-0.774-1.324-0.189-6.315-0.912c-12.905-1.945-25.81-4.181-38.577-6.883-1.288-0.286-2.441-1.002-3.267-2.0317-0.826-1.0292-1.276-2.3094-1.276-3.629 0-1.3197 0.45-2.5999 1.276-3.6291 0.826-1.0293 1.979-1.746 3.267-2.0319h0.241c11.064-2.3572 22.213-4.3704 33.397-6.1255 3.729-0.585 7.468-1.1585 11.219-1.7206h0.103c7.003-0.4646 14.041-1.7207 21.009-2.5466 60.63-6.3065 121.62-8.4565 182.54-6.4352 29.577 0.8604 59.138 2.5982 88.578 5.5921 6.332 0.6539 12.63 1.3422 18.927 2.1164 2.409 0.2926 4.835 0.6366 7.262 0.9292l4.886 0.7054c14.247 2.1222 28.419 4.6974 42.517 7.7258 20.889 4.5425 47.714 6.0222 57.005 28.907 2.96 7.261 4.302 15.331 5.936 22.953l2.083 9.722c0.054 0.174 0.094 0.353 0.12 0.533 4.921 22.942 9.848 45.884 14.78 68.826 0.362 1.695 0.37 3.446 0.025 5.144-0.345 1.699-1.036 3.307-2.031 4.727-0.994 1.419-2.271 2.618-3.749 3.522-1.479 0.904-3.127 1.493-4.844 1.732h-0.138l-3.011 0.413-2.976 0.395c-9.43 1.228-18.87 2.375-28.322 3.442-18.618 2.122-37.264 3.957-55.938 5.506-37.109 3.085-74.292 5.11-111.55 6.074-18.984 0.504-37.963 0.74-56.936 0.705-75.519-0.059-150.97-4.449-225.99-13.146-8.122-0.963-16.243-1.996-24.365-3.045 6.298 0.809-4.577-0.62-6.779-0.929-5.162-0.723-10.324-1.474-15.486-2.254-17.327-2.599-34.55-5.799-51.843-8.604-20.906-3.441-40.9-1.72-59.809 8.604-15.522 8.494-28.085 21.519-36.013 37.338-8.1559 16.862-10.582 35.221-14.23 53.34-3.6478 18.118-9.3259 37.613-7.1751 56.213 4.6285 40.143 32.692 72.766 73.059 80.062 37.975 6.882 76.156 12.457 114.44 17.206 150.39 18.419 302.32 20.622 453.18 6.573 12.285-1.147 24.553-2.397 36.804-3.751 3.827-0.42 7.699 0.02 11.333 1.29s6.938 3.337 9.67 6.049 4.822 6.001 6.118 9.625c1.297 3.625 1.766 7.494 1.373 11.323l-3.82 37.132c-7.697 75.031-15.394 150.06-23.091 225.08-8.029 78.783-16.111 157.56-24.244 236.33-2.294 22.19-4.588 44.37-6.882 66.54-2.203 21.84-2.512 44.36-6.659 65.94-6.539 33.93-29.509 54.77-63.027 62.39-30.708 6.99-62.078 10.66-93.569 10.94-34.912 0.19-69.806-1.36-104.72-1.17-37.27 0.21-82.918-3.23-111.69-30.97-25.277-24.36-28.77-62.51-32.211-95.5-4.588-43.67-9.136-87.331-13.645-130.99l-25.293-242.77-16.363-157.08c-0.276-2.598-0.551-5.162-0.809-7.778-1.962-18.737-15.228-37.079-36.134-36.133-17.894 0.791-38.232 16.002-36.133 36.133l12.13 116.45 25.087 240.89c7.147 68.424 14.276 136.86 21.388 205.31 1.377 13.11 2.667 26.26 4.112 39.37 7.864 71.65 62.58 110.26 130.34 121.13 39.575 6.37 80.113 7.68 120.27 8.33 51.482 0.83 103.48 2.81 154.12-6.52 75.038-13.77 131.34-63.87 139.37-141.59 2.295-22.44 4.589-44.88 6.883-67.33 7.628-74.241 15.245-148.49 22.85-222.74l24.881-242.61 11.408-111.19c0.568-5.514 2.896-10.698 6.64-14.785 3.743-4.087 8.703-6.861 14.145-7.911 21.456-4.181 41.967-11.322 57.229-27.651 24.295-25.998 29.13-59.895 20.544-94.067zm-807.14 23.986c0.3269-0.155-0.2753 2.649-0.5334 3.957-0.0516-1.979 0.0516-3.734 0.5334-3.957zm2.082 16.105c0.1721-0.121 0.6882 0.568 1.2216 1.394-0.8087-0.758-1.3248-1.325-1.2388-1.394h0.0172zm2.0476 2.701c0.7399 1.256 1.1356 2.048 0 0zm4.1123 3.338h0.1032c0 0.121 0.1893 0.241 0.2581 0.362-0.1141-0.133-0.2408-0.254-0.3785-0.362h0.0172zm720.12-4.99c-7.708 7.33-19.323 10.737-30.8 12.441-128.7 19.099-259.28 28.769-389.4 24.502-93.121-3.183-185.26-13.525-277.45-26.55-9.0338-1.273-18.824-2.925-25.036-9.584-11.7-12.561-5.9534-37.854-2.9079-53.03 2.7875-13.903 8.1215-32.434 24.657-34.413 25.81-3.028 55.783 7.863 81.318 11.735 30.742 4.691 61.599 8.448 92.57 11.27 132.18 12.045 266.58 10.169 398.18-7.45 23.986-3.224 47.885-6.969 71.699-11.236 21.216-3.803 44.737-10.943 57.556 11.029 8.792 14.97 9.962 34.998 8.603 51.912-0.419 7.369-3.639 14.3-8.999 19.374h0.017z" fill="currentColor"/>
</symbol>

<symbol id="calender" viewBox="0 0 24 24" stroke="currentColor" stroke-width="2" fill="none" stroke-linecap="round" stroke-linejoin="round">
  <rect x="3" y="4" width="18" height="18" rx="2" ry="2"></rect><line x1="16" y1="2" x2="16" y2="6"></line><line x1="8" y1="2" x2="8" y2="6"></line><line x1="3" y1="10" x2="21" y2="10"></line>
</symbol>

<symbol id="chevron" viewBox="0 0 80 32" fill="currentColor">
  <path d="M50.286 5.486l-5.867-5.486-19.276 18.024-19.276-18.024-5.867 5.486 25.143 23.51z"></path>
</symbol>

<symbol id="check-circle" viewBox="0 0 24 24" stroke="currentColor" stroke-width="2" fill="none" stroke-linecap="round" stroke-linejoin="round">
  <path d="M22 11.08V12a10 10 0 1 1-5.93-9.14"></path><polyline points="22 4 12 14.01 9 11.01"></polyline>
</symbol>

<symbol id="check-square" viewBox="0 0 24 24" stroke="currentColor" stroke-width="2" fill="none" stroke-linecap="round" stroke-linejoin="round">
  <polyline points="9 11 12 14 22 4"></polyline><path d="M21 12v7a2 2 0 0 1-2 2H5a2 2 0 0 1-2-2V5a2 2 0 0 1 2-2h11"></path>
</symbol>

<symbol id="close" viewBox="0 0 24 24" fill="currentColor">
  <path d="M19 6.41L17.59 5 12 10.59 6.41 5 5 6.41 10.59 12 5 17.59 6.41 19 12 13.41 17.59 19 19 17.59 13.41 12z"/>
</symbol>

<symbol id="codepen" viewBox="0 0 24 24" stroke="currentColor" stroke-width="2" fill="none" stroke-linecap="round" stroke-linejoin="round">
  <polygon points="12 2 22 8.5 22 15.5 12 22 2 15.5 2 8.5 12 2"></polygon><line x1="12" y1="22" x2="12" y2="15.5"></line><polyline points="22 8.5 12 15.5 2 8.5"></polyline><polyline points="2 15.5 12 8.5 22 15.5"></polyline><line x1="12" y1="2" x2="12" y2="8.5"></line>
</symbol>

<symbol id="coffee" viewBox="0 0 24 24" stroke="currentColor" stroke-width="2" fill="none" stroke-linecap="round" stroke-linejoin="round">
  <path d="M18 8h1a4 4 0 0 1 0 8h-1"></path><path d="M2 8h16v9a4 4 0 0 1-4 4H6a4 4 0 0 1-4-4V8z"></path><line x1="6" y1="1" x2="6" y2="4"></line><line x1="10" y1="1" x2="10" y2="4"></line><line x1="14" y1="1" x2="14" y2="4"></line>
</symbol>

<symbol id="comment" viewBox="0 0 30 30" fill="currentColor">
  <path d="M30 10.9c0-2-.5-3.8-1.6-5.5s-2.5-3-4.3-4c-1.8-1-3.8-1.5-5.9-1.5s-4.1.5-5.9 1.5-3.2 2.3-4.3 4-1.6 3.5-1.6 5.5.6 3.8 1.6 5.5 2.5 3 4.3 4c1.8 1 3.8 1.5 5.9 1.5 1 0 1.9-.1 2.9-.3 1.4 1.3 3 2.2 4.6 2.7.4.1.9.2 1.4.3h.1c.1 0 .2-.1.4-.2.1-.1.2-.3.2-.4v-.6l-.1-.1c0-.1-.1-.1-.1-.1l-.1-.1V23c-.1-.1-.2-.3-.4-.5-.2-.3-.4-.5-.5-.6s-.2-.3-.4-.6c-.1-.3-.3-.6-.4-.8-.1-.2-.2-.5-.3-1 1.4-1 2.5-2.3 3.2-3.7.9-1.6 1.3-3.2 1.3-4.9zM19.7 24.4c-.6.1-1.1.1-1.5.1-1.8 0-3.5-.3-5.2-1-1.6-.6-3.1-1.6-4.4-2.7-1.4-1.3-2.5-2.8-3.2-4.5s-1.1-3.5-1.1-5.4c0-1.1.1-2.2.4-3.2-1.4 1-2.6 2.3-3.4 3.8S0 14.6 0 16.3c0 1.7.4 3.3 1.2 4.8.8 1.5 1.9 2.7 3.2 3.7-.1.4-.2.7-.3 1-.1.3-.3.5-.4.8-.2.3-.3.5-.4.6s-.2.4-.4.6c-.2.3-.3.5-.4.5l-.1.1c0 .1-.1.1-.1.1s0 .1-.1.1c0 .1 0 .1-.1.1v.5c0 .2.1.4.2.5.2.3.3.3.5.3.5-.1 1-.2 1.4-.3 1.7-.6 3.2-1.5 4.7-2.7 1 .2 2 .3 2.9.3 3-.1 5.6-1 7.9-2.9z"/>
</symbol>

<symbol id="deviantart" viewBox="0 0 1792 1792" fill="currentColor">
  <path d="M1408 303l-303 582 24 31h279v415h-507l-44 30-142 273-30 30h-301v-303l303-583-24-30h-279v-415h507l44-30 142-273 30-30h301v303z"/>
</symbol>

<svg id="download" viewBox="0 0 24 24" stroke="currentColor" stroke-width="2" fill="none" stroke-linecap="round" stroke-linejoin="round">
  <path d="M21 15v4a2 2 0 0 1-2 2H5a2 2 0 0 1-2-2v-4"></path><polyline points="7 10 12 15 17 10"></polyline><line x1="12" y1="15" x2="12" y2="3"></line>
</svg>

<symbol id="discord" viewBox="0 0 448 512" fill="currentColor">
  <path d="M297.216 243.2c0 15.616-11.52 28.416-26.112 28.416-14.336 0-26.112-12.8-26.112-28.416s11.52-28.416 26.112-28.416c14.592 0 26.112 12.8 26.112 28.416zm-119.552-28.416c-14.592 0-26.112 12.8-26.112 28.416s11.776 28.416 26.112 28.416c14.592 0 26.112-12.8 26.112-28.416.256-15.616-11.52-28.416-26.112-28.416zM448 52.736V512c-64.494-56.994-43.868-38.128-118.784-107.776l13.568 47.36H52.48C23.552 451.584 0 428.032 0 398.848V52.736C0 23.552 23.552 0 52.48 0h343.04C424.448 0 448 23.552 448 52.736zm-72.96 242.688c0-82.432-36.864-149.248-36.864-149.248-36.864-27.648-71.936-26.88-71.936-26.88l-3.584 4.096c43.52 13.312 63.744 32.512 63.744 32.512-60.811-33.329-132.244-33.335-191.232-7.424-9.472 4.352-15.104 7.424-15.104 7.424s21.248-20.224 67.328-33.536l-2.56-3.072s-35.072-.768-71.936 26.88c0 0-36.864 66.816-36.864 149.248 0 0 21.504 37.12 78.08 38.912 0 0 9.472-11.52 17.152-21.248-32.512-9.728-44.8-30.208-44.8-30.208 3.766 2.636 9.976 6.053 10.496 6.4 43.21 24.198 104.588 32.126 159.744 8.96 8.96-3.328 18.944-8.192 29.44-15.104 0 0-12.8 20.992-46.336 30.464 7.68 9.728 16.896 20.736 16.896 20.736 56.576-1.792 78.336-38.912 78.336-38.912z"/>
</symbol>

<symbol id="dribbble" viewBox="0 0 1792 1792" fill="currentColor">
  <path d="M1152 1500q-42-241-140-498h-2l-2 1q-16 6-43 16.5t-101 49-137 82-131 114.5-103 148l-15-11q184 150 418 150 132 0 256-52zm-185-607q-21-49-53-111-311 93-673 93-1 7-1 21 0 124 44 236.5t124 201.5q50-89 123.5-166.5t142.5-124.5 130.5-81 99.5-48l37-13q4-1 13-3.5t13-4.5zm-107-212q-120-213-244-378-138 65-234 186t-128 272q302 0 606-80zm684 319q-210-60-409-29 87 239 128 469 111-75 185-189.5t96-250.5zm-805-741q-1 0-2 1 1-1 2-1zm590 145q-185-164-433-164-76 0-155 19 131 170 246 382 69-26 130-60.5t96.5-61.5 65.5-57 37.5-40.5zm223 485q-3-232-149-410l-1 1q-9 12-19 24.5t-43.5 44.5-71 60.5-100 65-131.5 64.5q25 53 44 95 2 5 6.5 17t7.5 17q36-5 74.5-7t73.5-2 69 1.5 64 4 56.5 5.5 48 6.5 36.5 6 25 4.5zm112 7q0 209-103 385.5t-279.5 279.5-385.5 103-385.5-103-279.5-279.5-103-385.5 103-385.5 279.5-279.5 385.5-103 385.5 103 279.5 279.5 103 385.5z"/>
</symbol>

<symbol id="email" viewBox="0 0 30 30" fill="currentColor">
  <path d="M4.1 25.3c-1.2 0-2.1-.4-2.9-1.2-.8-.8-1.2-1.8-1.2-3V8.9c0-1.2.4-2.2 1.2-3C2 5.1 3 4.7 4.1 4.7h21.8c1.2 0 2.1.4 2.9 1.3.8.8 1.2 1.8 1.2 3v12.2c0 1.2-.4 2.2-1.2 3-.8.8-1.8 1.2-2.9 1.2H4.1zm-1.3-4c0 .3.2.5.4.7.3.3.6.4.9.4h21.8c.4 0 .7-.2.9-.4.2-.2.3-.4.4-.7l-6.6-5.1-3.7 2.8c-.6.5-1.2.7-1.9.7s-1.4-.2-2-.7l-3.7-2.8-6.5 5.1zm24.4-2.4v-7.8l-5 3.9 5 3.9zm-24.4 0l5-3.9-5-3.9v7.8zm11.4-1.4c.2.2.5.3.8.3s.6-.1.8-.3l3.7-2.9.8-.6 6.9-5.4c0-.3-.2-.5-.4-.7-.3-.3-.6-.4-.9-.4H4c-.3 0-.6.1-.9.4-.1.3-.2.5-.3.8l11.4 8.8z"/>
</symbol>

<symbol id="enquiry" viewBox="0 0 24 24" fill="currentColor">
  <path d="M20 4H4c-1.1 0-1.99.9-1.99 2L2 18c0 1.1.9 2 2 2h16c1.1 0 2-.9 2-2V6c0-1.1-.9-2-2-2zm0 4l-8 5-8-5V6l8 5 8-5v2z"/>
</symbol>

<symbol id="etsy" viewBox="0 0 1792 1792" fill="currentColor">
  <path d="M646 183v655q103 1 191.5-1.5t125.5-5.5l37-3q68-2 90.5-24.5t39.5-94.5l33-142h103l-14 322 7 319h-103l-29-127q-15-68-45-93t-84-26q-87-8-352-8v556q0 78 43.5 115.5t133.5 37.5h357q35 0 59.5-2t55-7.5 54-18 48.5-32 46-50.5 39-73l93-216h89q-6 37-31.5 252t-30.5 276q-146-5-263.5-8t-162.5-4h-672l-376 12v-102l127-25q67-13 91.5-37t25.5-79l8-643q3-402-8-645-2-61-25.5-84t-91.5-36l-127-24v-102l376 12h702q139 0 374-27-6 68-14 194.5t-12 219.5l-5 92h-93l-32-124q-31-121-74-179.5t-113-58.5h-548q-28 0-35.5 8.5t-7.5 30.5z"/>
</symbol>

<symbol id="external" viewBox="0 0 24 24" stroke="currentColor" stroke-width="2" fill="none" stroke-linecap="round" stroke-linejoin="round">
  <path d="M18 13v6a2 2 0 0 1-2 2H5a2 2 0 0 1-2-2V8a2 2 0 0 1 2-2h6"></path><polyline points="15 3 21 3 21 9"></polyline><line x1="10" y1="14" x2="21" y2="3"></line>
</symbol>

<symbol id="facebook" viewBox="0 0 30 30" fill="currentColor">
  <path d="M22 0h-4.8c-2.9 0-6 1.2-6 5.3v4.4H7.9v5.2h3.4V30h6.2V14.8h4.1l.4-5.2h-4.6v-3c0-1.6 1.7-1.5 1.8-1.5H22V0z"/>
</symbol>

<symbol id="figma" viewBox="0 0 24 24" stroke="currentColor" stroke-width="2" fill="none" stroke-linecap="round" stroke-linejoin="round">
  <path d="M5 5.5A3.5 3.5 0 0 1 8.5 2H12v7H8.5A3.5 3.5 0 0 1 5 5.5z"></path><path d="M12 2h3.5a3.5 3.5 0 1 1 0 7H12V2z"></path><path d="M12 12.5a3.5 3.5 0 1 1 7 0 3.5 3.5 0 1 1-7 0z"></path><path d="M5 19.5A3.5 3.5 0 0 1 8.5 16H12v3.5a3.5 3.5 0 1 1-7 0z"></path><path d="M5 12.5A3.5 3.5 0 0 1 8.5 9H12v7H8.5A3.5 3.5 0 0 1 5 12.5z"></path>
</symbol>

<symbol id="file" viewBox="0 0 24 24" stroke="currentColor" stroke-width="2" fill="none" stroke-linecap="round" stroke-linejoin="round">
  <path d="M14 2H6a2 2 0 0 0-2 2v16a2 2 0 0 0 2 2h12a2 2 0 0 0 2-2V8z"></path><polyline points="14 2 14 8 20 8"></polyline><line x1="16" y1="13" x2="8" y2="13"></line><line x1="16" y1="17" x2="8" y2="17"></line><polyline points="10 9 9 9 8 9"></polyline>
</symbol>

<symbol id="filter" viewBox="0 0 24 24" stroke="currentColor" stroke-width="2" fill="none" stroke-linecap="round" stroke-linejoin="round">
  <polygon points="22 3 2 3 10 12.46 10 19 14 21 14 12.46 22 3"></polygon>
</symbol>

<symbol id="gift" viewBox="0 0 24 24" stroke="currentColor" stroke-width="2" fill="none" stroke-linecap="round" stroke-linejoin="round">
  <polyline points="20 12 20 22 4 22 4 12"></polyline><rect x="2" y="7" width="20" height="5"></rect><line x1="12" y1="22" x2="12" y2="7"></line><path d="M12 7H7.5a2.5 2.5 0 0 1 0-5C11 2 12 7 12 7z"></path><path d="M12 7h4.5a2.5 2.5 0 0 0 0-5C13 2 12 7 12 7z"></path>
</symbol>

<symbol id="github" viewBox="0 0 1792 1792" fill="currentColor">
  <path d="M896 128q209 0 385.5 103t279.5 279.5 103 385.5q0 251-146.5 451.5t-378.5 277.5q-27 5-40-7t-13-30q0-3 .5-76.5t.5-134.5q0-97-52-142 57-6 102.5-18t94-39 81-66.5 53-105 20.5-150.5q0-119-79-206 37-91-8-204-28-9-81 11t-92 44l-38 24q-93-26-192-26t-192 26q-16-11-42.5-27t-83.5-38.5-85-13.5q-45 113-8 204-79 87-79 206 0 85 20.5 150t52.5 105 80.5 67 94 39 102.5 18q-39 36-49 103-21 10-45 15t-57 5-65.5-21.5-55.5-62.5q-19-32-48.5-52t-49.5-24l-20-3q-21 0-29 4.5t-5 11.5 9 14 13 12l7 5q22 10 43.5 38t31.5 51l10 23q13 38 44 61.5t67 30 69.5 7 55.5-3.5l23-4q0 38 .5 88.5t.5 54.5q0 18-13 30t-40 7q-232-77-378.5-277.5t-146.5-451.5q0-209 103-385.5t279.5-279.5 385.5-103zm-477 1103q3-7-7-12-10-3-13 2-3 7 7 12 9 6 13-2zm31 34q7-5-2-16-10-9-16-3-7 5 2 16 10 10 16 3zm30 45q9-7 0-19-8-13-17-6-9 5 0 18t17 7zm42 42q8-8-4-19-12-12-20-3-9 8 4 19 12 12 20 3zm57 25q3-11-13-16-15-4-19 7t13 15q15 6 19-6zm63 5q0-13-17-11-16 0-16 11 0 13 17 11 16 0 16-11zm58-10q-2-11-18-9-16 3-14 15t18 8 14-14z"/>
</symbol>

<symbol id="gitlab" viewBox="0 0 1792 1792" fill="currentColor">
  <path d="M104 706l792 1015-868-630q-18-13-25-34.5t0-42.5l101-308zm462 0h660l-330 1015zm-198-612l198 612h-462l198-612q8-23 33-23t33 23zm1320 612l101 308q7 21 0 42.5t-25 34.5l-868 630 792-1015zm0 0h-462l198-612q8-23 33-23t33 23z"/>
</symbol>

<symbol id="instagram" viewBox="0 0 24 24" fill="none" stroke="currentColor" stroke-width="2" stroke-linecap="round" stroke-linejoin="round">
  <rect x="2" y="2" width="20" height="20" rx="5" ry="5"></rect><path d="M16 11.37A4 4 0 1 1 12.63 8 4 4 0 0 1 16 11.37z"></path><line x1="17.5" y1="6.5" x2="17.51" y2="6.5"></line>
</symbol>

<symbol id="linkedin" viewBox="0 0 30 30" fill="currentColor">
  <path d="M3.2.3C1.3.3 0 1.6 0 3.4c0 1.7 1.3 3.1 3.2 3.1 2 0 3.3-1.4 3.3-3.1C6.5 1.6 5.2.3 3.2.3zm-3 29.4h6.1v-21H.2v21zM22.9 9c-2 0-4-.4-6.1 2.9h-.1l-.1-3.2h-5.4c.1 1.7.1 4.3.1 6.8v14.2h6.1V17.6c0-.6.1-1.1.2-1.5.4-1.1 1.4-2.3 3.1-2.3 2.2 0 3.1 1.7 3.1 4.3v11.7H30V17.3c0-5.9-3-8.3-7.1-8.3z"/>
</symbol>

<symbol id="mastodon" viewBox="0 0 79 75" fill="currentColor">
  <path d="M74.713 16.604C73.62 8.546 66.535 2.195 58.137.964 56.72.758 51.35 0 38.915 0h-.093c-12.44 0-15.109.757-16.525.965C14.132 2.16 6.676 7.868 4.867 16.02c-.87 4.016-.963 8.468-.802 12.552.23 5.856.275 11.702.812 17.535a81.826 81.826 0 0 0 1.936 11.5c1.72 6.989 8.68 12.804 15.5 15.177a41.92 41.92 0 0 0 22.679 1.186c.828-.19 1.646-.412 2.456-.665 1.826-.576 3.968-1.22 5.544-2.352a.177.177 0 0 0 .072-.136v-5.652a.164.164 0 0 0-.065-.129.17.17 0 0 0-.142-.031 63.38 63.38 0 0 1-14.716 1.704c-8.53 0-10.823-4.012-11.48-5.682a17.48 17.48 0 0 1-.997-4.48.162.162 0 0 1 .06-.135.167.167 0 0 1 .146-.031 62.175 62.175 0 0 0 14.476 1.704c1.172 0 2.342 0 3.514-.03 4.905-.137 10.074-.386 14.9-1.32.12-.024.24-.044.343-.075 7.61-1.449 14.854-5.996 15.59-17.51.027-.454.096-4.75.096-5.22.004-1.598.52-11.34-.076-17.327zM63 45.337h-8.003v-19.43c0-4.09-1.72-6.177-5.218-6.177-3.845 0-5.77 2.468-5.77 7.343v10.635h-7.956V27.073c0-4.875-1.929-7.343-5.774-7.343-3.477 0-5.214 2.086-5.217 6.177v19.43h-7.996v-20.02c0-4.09 1.053-7.34 3.16-9.749 2.174-2.403 5.025-3.637 8.564-3.637 4.096 0 7.191 1.561 9.255 4.68l1.991 3.313 1.995-3.313c2.063-3.119 5.159-4.68 9.248-4.68 3.535 0 6.386 1.234 8.567 3.637 2.107 2.407 3.16 5.656 3.16 9.75L63 45.337z"/>
</symbol>

<symbol id="menu" viewBox="0 0 24 24" fill="currentColor">
  <path d="M3 18h18v-2H3v2zm0-5h18v-2H3v2zm0-7v2h18V6H3z"/>
</symbol>

<symbol id="moon" viewBox="0 0 24 24" fill="currentColor" stroke="currentColor">
  <path d="M21 12.79A9 9 0 1 1 11.21 3 7 7 0 0 0 21 12.79z"></path>
</symbol>

<symbol id="phone" viewBox="0 0 24 24" fill="currentColor">
  <path d="M6.62 10.79c1.44 2.83 3.76 5.14 6.59 6.59l2.2-2.2c.27-.27.67-.36 1.02-.24 1.12.37 2.33.57 3.57.57.55 0 1 .45 1 1V20c0 .55-.45 1-1 1-9.39 0-17-7.61-17-17 0-.55.45-1 1-1h3.5c.55 0 1 .45 1 1 0 1.25.2 2.45.57 3.57.11.35.03.74-.25 1.02l-2.2 2.2z"/>
</symbol>

<symbol id="play" viewBox="0 0 24 24" fill="currentColor">
  <circle cx="12" cy="12" r="10"></circle><polygon points="10 8 16 12 10 16 10 8"></polygon>
</symbol>
  
<symbol id="polywork" viewBox="0 0 25 24" fill="currentColor">
  <path fill-rule="evenodd" clip-rule="evenodd" d="M0 19.125V4.875C0 2.175 2.1985 0 4.92766 0H19.3316C22.0608 0 24.2593 2.175 24.2593 4.875V11.775C24.2593 14.475 22.0608 16.65 19.3316 16.65H16.5266V19.125C16.5266 21.825 14.3281 24 11.5989 24H4.92766C2.1985 24 0 21.825 0 19.125ZM7.58102 7.575H1.28877V4.8C1.28877 2.85 2.88079 1.2 4.92766 1.2H7.58102V7.575ZM19.3316 15.45H16.6783V8.99998H22.9705V11.85C22.9705 13.8 21.3785 15.45 19.3316 15.45ZM11.5989 22.8H8.94558V16.875H15.2378V19.2C15.2378 21.15 13.6458 22.8 11.5989 22.8ZM8.94558 15.45H15.2378V8.99998H8.94558V15.45ZM16.6783 7.575H22.9705V4.875C22.9705 2.85 21.3027 1.275 19.3316 1.275H16.6783V7.575ZM15.2378 7.575H8.94558V1.2H15.2378V7.575ZM1.21296 16.8V19.125C1.21296 21.15 2.88079 22.725 4.85185 22.725H7.58102V16.8H1.21296ZM7.58102 15.45H1.21296V8.99998H7.58102V15.45Z"/>
</symbol>

<symbol id="search" viewBox="0 0 24 24" fill="currentColor" stroke="currentColor">
  <path d="M15.5 14h-.79l-.28-.27C15.41 12.59 16 11.11 16 9.5 16 5.91 13.09 3 9.5 3S3 5.91 3 9.5 5.91 16 9.5 16c1.61 0 3.09-.59 4.23-1.57l.27.28v.79l5 4.99L20.49 19l-4.99-5zm-6 0C7.01 14 5 11.99 5 9.5S7.01 5 9.5 5 14 7.01 14 9.5 11.99 14 9.5 14z"/>
</symbol>

<symbol id="share" viewBox="0 0 30 30" fill="currentColor">
  <path d="M2.1 28.3c.1.1.1.2.2.4s.1.4.2.6c.1.2.2.3.2.4.2.2.3.3.5.3s.3-.1.4-.2c.1-.1.2-.3.2-.5v-.5c0-.2-.1-.3-.1-.4-.1-.9-.1-1.6-.1-2.3 0-1.3.1-2.4.3-3.4.2-1 .5-1.9.8-2.6.3-.7.8-1.4 1.3-1.9s1.1-1 1.8-1.3 1.4-.6 2.2-.8c.9-.2 1.7-.3 2.6-.4.9-.1 1.8-.1 2.9-.1h3.8v4.8c0 .3.1.6.3.8.2.2.5.4.8.4.3 0 .5-.1.8-.4l8.5-9.6c.2-.2.3-.5.3-.8 0-.3-.1-.6-.3-.8L21.2.4c-.3-.3-.5-.4-.8-.4-.3 0-.6.1-.8.3s-.3.5-.3.8V6h-3.8C7.5 6 2.7 8.5.9 13.6c-.6 1.6-.9 3.7-.9 6.2 0 2.1.7 4.9 2.1 8.5z"/>
</symbol>

<symbol id="subscribe" viewBox="0 0 30 30" fill="currentColor">
  <path d="M1.1 23.6c-.7.7-1 1.6-1.1 2.6 0 1 .3 1.9 1.1 2.6.8.8 1.6 1.2 2.6 1.2s1.9-.4 2.7-1.1c.8-.7 1.1-1.6 1.1-2.6s-.4-1.9-1.1-2.6c-.7-.7-1.6-1.1-2.7-1.1-1.1-.1-1.9.3-2.6 1zm0-22.5C.4 1.9 0 2.7 0 3.7s.4 1.9 1.1 2.6 1.6 1.1 2.7 1.1c5.2 0 9.6 1.8 13.3 5.5s5.5 8.1 5.5 13.3c0 1 .3 1.9 1.1 2.6.7.8 1.6 1.1 2.7 1.1 1 0 1.9-.4 2.7-1.1.7-.7 1.1-1.6 1.1-2.6 0-4.7-1.2-9.1-3.5-13.1s-5.6-7.2-9.6-9.6S8.5 0 3.7 0c-1 0-1.9.4-2.6 1.1zm0 11.3C.4 13.1 0 14 0 15s.4 1.9 1.1 2.6c.7.7 1.6 1.1 2.7 1.1 2 0 3.8.8 5.3 2.2s2.2 3.2 2.2 5.3c0 1 .4 1.9 1.1 2.6.6.9 1.5 1.2 2.6 1.2s2-.4 2.7-1.1c.7-.7 1.1-1.6 1.1-2.6 0-4.1-1.4-7.7-4.4-10.6s-6.5-4.4-10.6-4.4c-1.1 0-2 .4-2.7 1.1z"/>
</symbol>

<symbol id="sun" viewBox="0 0 24 24" fill="currentColor" stroke="currentColor" stroke-width="3" stroke-linecap="round" stroke-linejoin="round">
  <circle cx="12" cy="12" r="4"></circle><line x1="12" y1="1" x2="12" y2="3"></line><line x1="12" y1="21" x2="12" y2="23"></line><line x1="4.22" y1="4.22" x2="5.64" y2="5.64"></line><line x1="18.36" y1="18.36" x2="19.78" y2="19.78"></line><line x1="1" y1="12" x2="3" y2="12"></line><line x1="21" y1="12" x2="23" y2="12"></line><line x1="4.22" y1="19.78" x2="5.64" y2="18.36"></line><line x1="18.36" y1="5.64" x2="19.78" y2="4.22"></line>
</symbol>

<symbol id="tag" viewBox="0 0 24 24" fill="none" stroke="currentColor" stroke-width="2">
  <path d="M20.59 13.41l-7.17 7.17a2 2 0 0 1-2.83 0L2 12V2h10l8.59 8.59a2 2 0 0 1 0 2.82z"></path><line x1="7" y1="7" x2="7.01" y2="7"></line>
</symbol>

<symbol id="twitch" viewBox="0 0 1792 1792" fill="currentColor">
  <path d="M896 434v434h-145v-434h145zm398 0v434h-145v-434h145zm0 760l253-254v-795h-1194v1049h326v217l217-217h398zm398-1194v1013l-434 434h-326l-217 217h-217v-217h-398v-1158l109-289h1483z"/>
</symbol>

<symbol id="twitter" viewBox="0 0 30 30" fill="currentColor">
  <path d="M30 5.7c-1.1.5-2.3.8-3.5 1 1.3-.8 2.2-2 2.7-3.4-1.2.7-2.5 1.2-3.9 1.5-1.1-1.2-2.7-1.9-4.5-1.9-3.4 0-6.2 2.8-6.2 6.2 0 .5.1 1 .2 1.4-5.1-.4-9.7-2.8-12.7-6.6-.5.9-.8 2-.8 3.1 0 2.1 1.1 4 2.7 5.1-1 0-2-.3-2.8-.8v.1c0 3 2.1 5.5 4.9 6-.5.1-1.1.2-1.6.2-.4 0-.8 0-1.2-.1.8 2.4 3.1 4.2 5.7 4.3-2.1 1.7-4.8 2.6-7.6 2.6-.5 0-1 0-1.5-.1 2.7 1.7 6 2.8 9.4 2.8 11.3 0 17.5-9.4 17.5-17.5v-.8c1.3-.8 2.4-1.9 3.2-3.1z"/>
</symbol>

<symbol id="video" viewBox="0 0 24 24" stroke="currentColor" stroke-width="2" fill="none" stroke-linecap="round" stroke-linejoin="round">
  <rect x="2" y="2" width="20" height="20" rx="2.18" ry="2.18"></rect><line x1="7" y1="2" x2="7" y2="22"></line><line x1="17" y1="2" x2="17" y2="22"></line><line x1="2" y1="12" x2="22" y2="12"></line><line x1="2" y1="7" x2="7" y2="7"></line><line x1="2" y1="17" x2="7" y2="17"></line><line x1="17" y1="17" x2="22" y2="17"></line><line x1="17" y1="7" x2="22" y2="7"></line>
</symbol>

<symbol id="youtube" viewBox="0 0 30 30" fill="currentColor">
  <path d="M29.7 8.8s-.1-4.4-4.6-4.5c-4.5-.2-9.6-.3-9.6-.3h-.9s-5.2.1-9.7.3C.3 4.5.3 8.6.3 8.6s-.6 6.6-.1 11.5c.4 3.7 1.2 5.2 5.5 5.4 4.3.2 8.8.5 8.8.5h.9s4.5-.2 8.8-.4c4.3-.2 5.1-1.5 5.5-5.2.6-5 0-11.6 0-11.6zM12 19.2v-8.5l8.1 4.3-8.1 4.2z"/>
</symbol>

</svg>
